PathFileType	4	(X/Y/Z)	SUBJ51_2_walk_RCNL2025.trc
DataRate	CameraRate	NumFrames	NumMarkers	Units	OrigDataRate	OrigDataStartFrame	OrigNumFrames
100	100	10	25	mm	100	172	229
Frame#	Time	R_Shoulder			L_Shoulder			C7			J_Notch			R_Elbow			L_Elbow			R_Wrist			L_Wrist			R_Asis			L_Asis			Sacral			Thoracic			Sternum			R_Thigh_Lateral			R_Knee_Lateral			R_Shank_Lateral			R_Ankle_Lateral			R_Heel			R_Toe			L_Thigh_Lateral			L_Knee_Lateral			L_Shank_Lateral			L_Ankle_Lateral			L_Heel			L_Toe		
		X1	Y1	Z1	X2	Y2	Z2	X3	Y3	Z3	X4	Y4	Z4	X5	Y5	Z5	X6	Y6	Z6	X7	Y7	Z7	X8	Y8	Z8	X9	Y9	Z9	X10	Y10	Z10	X11	Y11	Z11	X12	Y12	Z12	X13	Y13	Z13	X14	Y14	Z14	X15	Y15	Z15	X16	Y16	Z16	X17	Y17	Z17	X18	Y18	Z18	X19	Y19	Z19	X20	Y20	Z20	X21	Y21	Z21	X22	Y22	Z22	X23	Y23	Z23	X24	Y24	Z24	X25	Y25	Z25
172	1.71000000	632.532104	1477.515381	386.333466	639.794495	1495.033325	-67.936676	551.303589	1609.762939	140.588211	689.340515	1483.411987	153.095093	506.225433	1190.922363	470.607971	604.616394	1186.568970	-173.882828	528.487762	919.633209	462.900513	751.434723	971.658722	-156.522446	667.901978	1047.234497	284.646423	657.950867	1031.723999	45.926872	446.315277	1077.909546	167.199280	441.282959	1403.497192	147.584900	721.130554	1254.125610	152.496780	737.442383	679.251953	389.399567	747.328735	556.953369	342.047546	640.870667	373.959625	396.737457	549.370728	159.888443	278.945923	510.671600	169.371979	211.741653	680.101929	68.925674	281.385223	551.886963	644.583618	-42.815281	523.294128	527.903748	7.408874	478.231262	338.912201	-25.807484	454.618622	75.172211	91.907059	405.285980	84.506866	150.821091	610.253113	48.601639	102.840233
173	1.72000000	646.007996	1475.514771	386.078674	654.170044	1494.387939	-68.005081	565.202332	1608.581177	140.269119	703.035461	1481.988770	152.627289	514.520996	1190.103394	468.117950	623.733459	1186.993652	-176.478912	530.476166	918.400146	459.285675	776.560760	976.568512	-157.634735	681.455078	1046.034302	283.501465	670.112000	1030.125244	45.008350	459.274353	1076.825439	167.676880	454.789551	1402.568481	147.256592	734.410767	1252.643921	151.265625	754.492188	679.467712	387.480927	765.214050	556.960632	339.986084	668.637573	367.523315	395.238739	590.011108	147.925949	277.990662	550.491943	154.491745	210.957642	726.704041	66.575142	280.429413	560.099548	643.678406	-42.911022	529.736938	527.349304	7.445876	482.278687	338.914490	-25.565252	455.127747	75.577461	92.224823	405.832458	85.332031	151.102631	610.538330	48.572861	102.768982
174	1.73000000	659.582642	1473.337280	385.881531	668.503784	1493.516357	-68.037750	579.161377	1607.205566	140.029861	716.782288	1480.337036	152.191055	522.987000	1189.237549	465.737549	642.725342	1187.303711	-178.997589	532.910660	917.182281	455.721344	801.195679	981.355286	-158.696243	695.008301	1044.528198	282.512543	682.492371	1028.441406	43.981335	472.288635	1075.526978	168.248901	468.331207	1401.463135	147.085007	747.722290	1250.913574	150.033066	770.795532	679.065125	385.388702	782.254578	556.405273	337.814392	696.254456	360.917267	393.698242	631.381287	136.433609	277.095551	591.302429	140.084824	210.215958	773.358032	64.974846	279.636688	568.516968	642.667236	-42.944206	536.473450	526.719971	7.583259	486.522095	338.921112	-25.266670	455.659515	76.032021	92.612000	406.477112	86.199890	151.487915	610.826904	48.555790	102.721107
175	1.74000000	673.236450	1471.018188	385.739807	682.804993	1492.439331	-68.035713	593.179199	1605.645020	139.855637	730.587402	1478.476440	151.798462	531.684326	1188.331421	463.477173	661.578735	1187.504883	-181.421005	535.852417	915.960114	452.244797	825.324921	985.998962	-159.712975	708.606995	1042.750610	281.683105	695.151245	1026.726807	42.821617	485.384277	1074.012451	168.896561	481.916321	1400.189209	147.041840	761.069580	1248.948242	148.821014	786.241943	677.990173	383.169128	798.449280	555.277527	335.554169	723.660400	354.251434	392.112549	673.351074	125.680901	276.241180	633.010437	126.441887	209.469330	819.912354	64.317696	279.009277	577.049805	641.594238	-42.936165	543.410095	526.057556	7.793234	490.866516	338.968872	-24.935167	456.194366	76.556427	93.057060	407.203339	87.138390	151.955917	611.085449	48.544510	102.697609
176	1.75000000	686.956543	1468.587280	385.649750	697.086487	1491.180176	-67.999725	607.251343	1603.911377	139.734207	744.456055	1476.432495	151.459274	540.653687	1187.386841	461.349396	680.272766	1187.603394	-183.732849	539.361755	914.724060	448.885590	848.932953	990.477325	-160.690613	722.302856	1040.739380	281.006470	708.144104	1025.041138	41.517105	498.590302	1072.287598	169.600662	495.554840	1398.756226	147.096405	774.460693	1246.771606	147.654343	800.729553	676.196716	380.886108	813.815674	553.590759	333.226959	750.782959	347.655579	390.476410	715.748352	115.926620	275.403351	675.470459	113.843628	208.667389	866.189148	64.791191	278.518677	585.624023	640.508911	-42.913757	550.471924	525.406738	8.039036	495.240356	339.090576	-24.595404	456.720337	77.176498	93.539726	407.991455	88.186234	152.470520	611.295227	48.534843	102.695793
177	1.76000000	700.735413	1466.069336	385.608948	711.364075	1489.764160	-67.931084	621.372986	1602.019531	139.657211	758.392273	1474.235596	151.180954	549.916016	1186.402466	459.369781	698.780396	1187.604370	-185.919479	543.494141	913.482422	445.664719	872.005219	994.771118	-161.635506	736.146057	1038.529175	280.467651	721.498840	1023.430603	40.077415	511.937927	1070.369019	170.344040	509.255951	1397.175415	147.221970	787.909180	1244.415283	146.557419	814.194031	673.660095	378.622772	828.400330	551.383301	330.858307	777.538208	341.274902	388.783081	758.357361	107.402336	274.550354	718.465149	102.545097	207.763351	911.978638	66.552620	278.102081	594.187622	639.456665	-42.904148	557.611877	524.806335	8.281139	499.602203	339.313782	-24.271523	457.235901	77.921761	94.032043	408.823700	89.386208	152.987518	611.456543	48.524723	102.708923
178	1.77000000	714.568054	1463.485107	385.618042	725.655151	1488.217896	-67.831024	635.542175	1599.988403	139.621231	772.398804	1471.918823	150.969742	559.476074	1185.375366	457.553558	717.069641	1187.511963	-187.969650	548.297241	912.260620	442.597122	894.529755	998.866333	-162.555717	750.177612	1036.150024	280.045288	735.188416	1021.905579	38.548965	525.455627	1068.284912	171.115936	523.027283	1395.459351	147.399734	801.434204	1241.917725	145.551926	826.634827	670.386108	376.481018	842.291748	548.716736	328.481384	803.833923	335.259186	387.028137	800.914795	100.293480	273.640930	761.691589	92.755745	206.718124	957.035034	69.701248	277.662109	602.716736	638.470459	-42.932159	564.815186	524.281799	8.483085	503.945709	339.656525	-23.984392	457.751038	78.821411	94.500183	409.688477	90.778343	153.463943	611.583618	48.512901	102.728661
179	1.78000000	728.449585	1460.853760	385.681061	739.977051	1486.568604	-67.698662	649.760010	1597.840942	139.629074	786.477661	1469.514526	150.832535	569.327820	1184.303345	455.912354	735.106445	1187.328003	-189.873642	553.808197	911.083893	439.695007	916.495575	1002.751678	-163.459648	764.426941	1033.630737	279.711365	749.114990	1020.427246	37.024483	539.164185	1066.073853	171.915726	536.875916	1393.621338	147.619553	815.059082	1239.322632	144.655869	838.129639	666.415466	374.576172	855.628418	545.671082	326.139282	829.588806	329.739075	385.213135	843.103821	94.717903	272.623322	804.767517	84.618942	205.494751	1001.073730	74.250565	277.072113	611.222717	637.568604	-43.019836	572.100769	523.841125	8.615598	508.299957	340.125519	-23.749876	458.282043	79.897896	94.909813	410.583496	92.396088	153.865829	611.694214	48.496761	102.749168
180	1.79000000	742.374268	1458.195435	385.804749	754.344788	1484.844116	-67.529198	664.028870	1595.603027	139.690033	800.631226	1467.053467	150.776978	579.462036	1183.187012	454.452698	752.856628	1187.052612	-191.622360	560.053009	909.957764	436.968826	937.888214	1006.413666	-164.352592	778.911438	1031.003174	279.430603	763.127869	1018.919678	35.627628	553.075623	1063.781616	172.752090	550.809143	1391.675781	147.878433	828.807556	1236.677490	143.882492	848.839355	661.829834	373.024506	868.593811	542.341980	323.884583	854.768066	324.795898	383.347900	884.553101	90.705841	271.435486	847.245972	78.191681	204.054474	1043.774414	80.105316	276.186432	619.755005	636.758118	-43.185947	579.517944	523.475830	8.659353	512.725281	340.718140	-23.580933	458.845001	81.164536	95.232094	411.516144	94.264999	154.168274	611.804932	48.474567	102.767685
181	1.80000000	756.334351	1455.532959	385.998047	768.769714	1483.073486	-67.314331	678.351807	1593.301758	139.817200	814.863892	1464.567261	150.809204	589.874512	1182.028198	453.176453	770.287903	1186.686523	-193.207672	567.049316	908.866241	434.427170	958.685852	1009.833221	-165.233803	793.635315	1028.302124	279.163605	777.081238	1017.307800	34.469822	567.193726	1061.456787	173.636780	564.835999	1389.637939	148.178070	842.701111	1234.030518	143.239822	859.009705	656.762451	371.921753	881.398560	538.838745	321.773376	879.395508	320.450623	381.450195	924.844299	88.186485	270.009979	888.626831	73.429298	202.362671	1084.791504	87.046936	274.857117	628.395752	636.036438	-43.443665	587.140015	523.165955	8.603936	517.304932	341.425873	-23.493093	459.455597	82.629250	95.442513	412.499725	96.402069	154.347183	611.930481	48.449570	102.781334
